<?xml version="1.0" encoding="iso-8859-1"?>
<!-- Uploaded to: SVG Repo, www.svgrepo.com, Generator: SVG Repo Mixer Tools -->
<svg version="1.1" id="Layer_1" xmlns="http://www.w3.org/2000/svg" xmlns:xlink="http://www.w3.org/1999/xlink" 
	 viewBox="0 0 511.98 511.98" xml:space="preserve" fill="currentColor">
<g>
	<path   d="M373.313,469.309H266.646c-2.828,0-5.531-1.125-7.531-3.125s-3.125-4.703-3.125-7.546V394.64h21.344
		l-0.016,53.342h85.339v-74.669h21.328v85.325C383.985,464.544,379.204,469.309,373.313,469.309z"/>
	<path  d="M458.654,511.98H223.991c-2.828,0-5.547-1.125-7.547-3.125s-3.125-4.719-3.125-7.547l0.016-106.668
		h21.327l-0.016,95.997h213.335V373.313h21.344v127.995C469.326,507.199,464.545,511.98,458.654,511.98z"/>
	<path  d="M266.662,21.327H74.669c-29.405,0-53.342,23.929-53.342,53.333v277.326
		c0,29.405,23.937,53.326,53.342,53.326h191.993c29.405,0,53.325-23.921,53.325-53.326V74.66
		C319.987,45.256,296.067,21.327,266.662,21.327z"/>
</g>
<path  d="M266.662,0H74.669C45.264,0,21.327,23.921,21.327,53.326v277.316
	c0,29.406,23.937,53.343,53.342,53.343h191.993c29.405,0,53.325-23.937,53.325-53.343V53.326C319.987,23.921,296.067,0,266.662,0z"
	/>
<rect  x="64" y="42.662" style="fill:white;" width="213.32" height="106.66"/>
<path style="fill:white" d="M234.662,21.327H106.668c-5.891,0-10.671-4.773-10.671-10.664S100.777,0,106.668,0h127.995
	c5.891,0,10.656,4.772,10.656,10.663S240.553,21.327,234.662,21.327z"/>

<g>
	<path  d="M178.196,173.782c4.171,4.164,4.171,10.914,0,15.086c-4.156,4.164-10.906,4.164-15.077,0
		c-4.172-4.172-4.172-10.922,0-15.086C167.29,169.618,174.04,169.618,178.196,173.782z"/>
	<path  d="M178.196,344.439c4.171,4.172,4.171,10.922,0,15.078c-4.156,4.171-10.906,4.171-15.077,0
		c-4.172-4.156-4.172-10.906,0-15.078C167.29,340.267,174.04,340.267,178.196,344.439z"/>
	<path style="fill:white;" d="M130.761,182.453c5.687,1.523,9.062,7.375,7.531,13.062c-1.516,5.687-7.375,9.062-13.062,7.539
		c-5.687-1.523-9.062-7.367-7.531-13.062C119.214,184.305,125.073,180.93,130.761,182.453z"/>
	<path style="fill:white;" d="M216.085,330.236c5.688,1.531,9.062,7.375,7.547,13.078c-1.531,5.688-7.375,9.062-13.062,7.547
		c-5.703-1.531-9.078-7.375-7.547-13.062C204.539,332.095,210.398,328.72,216.085,330.236z"/>
	<path style="fill:white;" d="M93.996,213.687c5.687-1.523,11.546,1.852,13.062,7.539c1.531,5.687-1.844,11.538-7.531,13.061
		c-5.687,1.523-11.546-1.851-13.062-7.538C84.934,221.062,88.309,215.21,93.996,213.687z"/>
	<path style="fill:white;" d="M241.803,299.019c5.687-1.53,11.531,1.844,13.062,7.531c1.516,5.687-1.859,11.546-7.547,13.062
		c-5.687,1.531-11.546-1.844-13.062-7.531C232.725,306.394,236.1,300.535,241.803,299.019z"/>
	<path style="fill:white;" d="M77.794,259.106c4.156-4.163,10.906-4.163,15.078,0c4.172,4.172,4.172,10.922,0,15.086
		c-4.172,4.172-10.921,4.172-15.078,0C73.622,270.028,73.622,263.27,77.794,259.106z"/>
	<path style="fill:white;" d="M248.443,259.106c4.172-4.163,10.922-4.163,15.094,0c4.156,4.164,4.156,10.922,0,15.086
		c-4.172,4.172-10.922,4.172-15.094,0C244.287,270.028,244.287,263.278,248.443,259.106z"/>
	<path style="fill:white;" d="M86.465,306.551c1.516-5.688,7.375-9.062,13.062-7.531c5.688,1.516,9.062,7.375,7.531,13.062
		c-1.516,5.688-7.375,9.062-13.062,7.531C88.309,318.096,84.934,312.237,86.465,306.551z"/>
	<path style="fill:white;" d="M234.256,221.226c1.516-5.688,7.375-9.062,13.062-7.539c5.688,1.523,9.062,7.375,7.547,13.062
		c-1.531,5.687-7.375,9.069-13.062,7.538C236.1,232.763,232.725,226.913,234.256,221.226z"/>
	<path style="fill:white;" d="M117.698,343.314c-1.531-5.703,1.844-11.547,7.531-13.078c5.688-1.516,11.546,1.859,13.062,7.562
		c1.531,5.688-1.844,11.531-7.531,13.062C125.073,352.377,119.214,349.002,117.698,343.314z"/>
	<path style="fill:white;" d="M203.023,195.515c-1.531-5.687,1.844-11.539,7.547-13.062c5.687-1.523,11.531,1.852,13.062,7.539
		c1.516,5.695-1.859,11.538-7.547,13.062C210.398,204.577,204.539,201.202,203.023,195.515z"/>
</g>
<g>
	<path style="fill:white;" d="M256.349,194.75c-1.516-5.687,1.859-11.539,7.547-13.062s11.531,1.852,13.062,7.539
		c1.531,5.695-1.844,11.538-7.547,13.062C263.724,203.82,257.881,200.437,256.349,194.75z"/>
	<path  style="fill:white;" d="M64.357,194.75c-1.516-5.687,1.859-11.539,7.546-13.062s11.531,1.852,13.062,7.539
		c1.531,5.695-1.844,11.538-7.546,13.062C71.731,203.82,65.887,200.437,64.357,194.75z"/>
</g>
<path  style="fill:white;" d="M215.913,311.893c-24.999,24.999-65.513,24.999-90.512,0c-24.983-24.982-24.983-65.505,0-90.496
	c24.999-24.992,65.513-24.992,90.512,0C240.912,246.388,240.912,286.911,215.913,311.893z"/>
<path style="fill:currentColor;" d="M148.041,299.957c-2.734,0-5.469-1.062-7.547-3.124c-4.172-4.172-4.172-10.938,0-15.094
	l45.248-45.257c4.172-4.164,10.922-4.164,15.093,0c4.156,4.164,4.156,10.922,0,15.086l-45.264,45.265
	C153.494,298.894,150.76,299.957,148.041,299.957z"/>
<path  d="M394.657,138.658h-42.671c-5.891,0-10.671,4.773-10.671,10.664v223.991
	c0,5.891,4.78,10.672,10.671,10.672h42.671c5.891,0,10.656-4.781,10.656-10.672V149.322
	C405.313,143.431,400.548,138.658,394.657,138.658z"/>
<path  d="M479.981,138.658H437.31c-5.891,0-10.654,4.773-10.654,10.664v223.991
	c0,5.891,4.764,10.672,10.654,10.672h42.671c5.891,0,10.672-4.781,10.672-10.672V149.322
	C490.653,143.431,485.872,138.658,479.981,138.658z"/>
<g>
	<path  d="M373.313,159.993c-5.891,0-10.656-4.781-10.656-10.671V74.66c0-5.891,4.766-10.664,10.656-10.664
		s10.672,4.773,10.672,10.664v74.662C383.985,155.213,379.204,159.993,373.313,159.993z"/>
	<path  d="M458.654,159.993c-5.891,0-10.672-4.781-10.672-10.671V74.66c0-5.891,4.781-10.664,10.672-10.664
		S469.31,68.77,469.31,74.66v74.662C469.31,155.213,464.545,159.993,458.654,159.993z"/>
</g>
<path  d="M394.657,138.658h-42.671c-5.891,0-10.671,4.773-10.671,10.664v21.335h63.998v-21.335
	C405.313,143.431,400.548,138.658,394.657,138.658z"/>
<path  d="M479.981,138.658H437.31c-5.891,0-10.654,4.773-10.654,10.664v21.335h63.997v-21.335
	C490.653,143.431,485.872,138.658,479.981,138.658z"/>
</svg>