<svg width="100.000000" height="100.000000" viewBox="0 0 500 500"  xmlns="http://www.w3.org/2000/svg" fill="currentColor"  stroke="currentColor" stroke-width="12" stroke-linejoin="round">



    <g id="logo">
        <path fill="currentColor" d="M8 1a1 1 0 0 1 1-1h6a1 1 0 0 1 1 1v14a1 1 0 0 1-1 1H9a1 1 0 0 1-1-1zm1 13.5a.5.5 0 1 0 1 0 .5.5 0 0 0-1 0m2 0a.5.5 0 1 0 1 0 .5.5 0 0 0-1 0M9.5 1a.5.5 0 0 0 0 1h5a.5.5 0 0 0 0-1zM9 3.5a.5.5 0 0 0 .5.5h5a.5.5 0 0 0 0-1h-5a.5.5 0 0 0-.5.5M1.5 2A1.5 1.5 0 0 0 0 3.5v7A1.5 1.5 0 0 0 1.5 12H6v2h-.5a.5.5 0 0 0 0 1H7v-4H1.5a.5.5 0 0 1-.5-.5v-7a.5.5 0 0 1 .5-.5H7V2z"/>
    </g>
    <g id="software"  stroke="currentColor" stroke-width="12" stroke-linejoin="round">
        <path fill="currentColor" d="M462.5,22.5H7.5C3.357,22.5,0,25.857,0,30v410c0,4.143,3.357,7.5,7.5,7.5h455c4.143,0,7.5-3.357,7.5-7.5V30
		C470,25.857,466.643,22.5,462.5,22.5z M455,432.5H15v-395h277.5v45h-255c-4.143,0-7.5,3.357-7.5,7.5s3.357,7.5,7.5,7.5h395
		c4.143,0,7.5-3.357,7.5-7.5s-3.357-7.5-7.5-7.5h-125v-45H455V432.5z"/>
        <circle fill="currentColor" cx="381.5" cy="60" r="7.5"/>
        <circle fill="currentColor" cx="340.5" cy="60" r="7.5"/>
        <circle fill="currentColor" cx="422.5" cy="60" r="7.5"/>
        <path fill="currentColor" d="M235,206.676c-30.646,0-55.577,24.932-55.577,55.577S204.354,317.83,235,317.83c8.816,0,17.612-2.133,25.436-6.167
		c3.682-1.898,5.127-6.422,3.229-10.104c-1.899-3.682-6.422-5.124-10.104-3.229c-5.789,2.985-12.033,4.499-18.561,4.499
		c-22.374,0-40.577-18.203-40.577-40.577s18.203-40.577,40.577-40.577s40.577,18.203,40.577,40.577
		c0,6.528-1.514,12.772-4.498,18.56c-1.898,3.681-0.453,8.204,3.229,10.104c3.68,1.895,8.203,0.455,10.104-3.229
		c4.034-7.821,6.166-16.616,6.166-25.435C290.577,231.607,265.646,206.676,235,206.676z"/>
        <path d="M358.087,234.753h-31.543c-1.851-6.15-4.322-12.095-7.387-17.767l22.324-22.323c1.406-1.407,2.196-3.314,2.196-5.304
		s-0.79-3.896-2.196-5.304l-28.284-28.284c-2.93-2.928-7.678-2.928-10.607,0l-22.323,22.324c-5.672-3.064-11.616-5.536-17.767-7.387
		v-31.543c0-4.143-3.357-7.5-7.5-7.5h-40c-4.143,0-7.5,3.357-7.5,7.5v31.543c-6.15,1.851-12.095,4.322-17.767,7.387l-22.323-22.324
		c-2.93-2.928-7.678-2.928-10.607,0l-28.284,28.284c-1.406,1.407-2.196,3.314-2.196,5.304s0.79,3.896,2.196,5.304l22.324,22.323
		c-3.064,5.672-5.536,11.616-7.387,17.767h-31.543c-4.143,0-7.5,3.357-7.5,7.5v40c0,4.143,3.357,7.5,7.5,7.5h31.544
		c1.851,6.152,4.321,12.096,7.386,17.767l-22.323,22.322c-1.407,1.407-2.197,3.314-2.197,5.304s0.79,3.896,2.196,5.304
		l28.284,28.284c2.929,2.927,7.678,2.929,10.606,0l22.324-22.323c5.672,3.064,11.616,5.536,17.767,7.387v31.542
		c0,4.143,3.357,7.5,7.5,7.5h40c4.143,0,7.5-3.357,7.5-7.5v-31.542c6.15-1.851,12.095-4.322,17.767-7.387l22.324,22.323
		c2.928,2.928,7.677,2.928,10.606,0l28.284-28.284c1.406-1.407,2.196-3.314,2.196-5.304s-0.79-3.896-2.197-5.304l-22.323-22.322
		c3.064-5.672,5.535-11.615,7.386-17.767h31.544c4.143,0,7.5-3.357,7.5-7.5v-40C365.587,238.11,362.229,234.753,358.087,234.753z
		 M350.587,274.753h-29.802c-3.486,0-6.513,2.402-7.305,5.798c-1.995,8.563-5.383,16.712-10.069,24.223
		c-1.848,2.961-1.408,6.805,1.061,9.273l21.1,21.099l-17.678,17.678l-21.101-21.1c-2.468-2.467-6.31-2.906-9.272-1.06
		c-7.511,4.687-15.661,8.074-24.223,10.069c-3.396,0.792-5.798,3.818-5.798,7.305v29.801h-25v-29.801
		c0-3.486-2.402-6.513-5.798-7.305c-8.562-1.995-16.712-5.383-24.223-10.069c-2.962-1.847-6.807-1.406-9.272,1.06l-21.101,21.1
		l-17.678-17.678l21.1-21.099c2.469-2.469,2.908-6.313,1.06-9.274c-4.685-7.508-8.072-15.657-10.068-24.222
		c-0.792-3.396-3.818-5.798-7.305-5.798h-29.802v-25h29.802c3.486,0,6.513-2.402,7.305-5.798
		c1.995-8.562,5.383-16.712,10.069-24.223c1.848-2.961,1.408-6.805-1.06-9.273l-21.101-21.1l17.678-17.678l21.1,21.101
		c2.468,2.468,6.312,2.908,9.273,1.06c7.511-4.687,15.661-8.074,24.223-10.069c3.396-0.792,5.798-3.818,5.798-7.305v-29.802h25
		v29.802c0,3.486,2.402,6.513,5.798,7.305c8.562,1.995,16.712,5.383,24.223,10.069c2.962,1.848,6.807,1.405,9.273-1.06l21.1-21.101
		l17.678,17.678l-21.101,21.1c-2.468,2.469-2.907,6.313-1.06,9.273c4.687,7.511,8.074,15.661,10.069,24.223
		c0.792,3.396,3.818,5.798,7.305,5.798h29.802V274.753z" fill="currentColor"/>
    </g>
    <g id="barcode" fill="currentColor">

        <path   d="m 111,106 a 1.0001,1.0001 0 0 0 -1,1 v 3 a 1,1 0 0 0 1,1 1,1 0 0 0 1,-1 v -2 h 2 a 1,1 0 0 0 1,-1 1,1 0 0 0 -1,-1 z" id="path11698" />

        <path  d="m 134,106 a 1,1 0 0 0 -1,1 1,1 0 0 0 1,1 h 2 v 2 a 1,1 0 0 0 1,1 1,1 0 0 0 1,-1 v -3 a 1.0001,1.0001 0 0 0 -1,-1 z" id="path11700" />

        <path  d="m 137,121 a 1,1 0 0 0 -1,1 v 2 h -2 a 1,1 0 0 0 -1,1 1,1 0 0 0 1,1 h 3 a 1.0001,1.0001 0 0 0 1,-1 v -3 a 1,1 0 0 0 -1,-1 z" id="path11702" />

        <path  d="m 111,121 a 1,1 0 0 0 -1,1 v 3 a 1.0001,1.0001 0 0 0 1,1 h 3 a 1,1 0 0 0 1,-1 1,1 0 0 0 -1,-1 h -2 v -2 a 1,1 0 0 0 -1,-1 z" id="path11704" />

        <path  d="m 115,110 a 1,1 0 0 0 -1,1 v 10 a 1,1 0 0 0 1,1 1,1 0 0 0 1,-1 v -10 a 1,1 0 0 0 -1,-1 z" id="path11706" />

        <path  d="m 118,110 a 1,1 0 0 0 -1,1 v 10 a 1,1 0 0 0 1,1 1,1 0 0 0 1,-1 v -10 a 1,1 0 0 0 -1,-1 z" id="path11708" />

        <path  d="m 121,110 a 1,1 0 0 0 -1,1 v 10 a 1,1 0 0 0 1,1 1,1 0 0 0 1,-1 v -10 a 1,1 0 0 0 -1,-1 z" id="path11710" />

        <path  d="m 124,110 a 1,1 0 0 0 -1,1 v 10 a 1,1 0 0 0 1,1 1,1 0 0 0 1,-1 v -10 a 1,1 0 0 0 -1,-1 z" id="path11712" />

        <path  d="m 127,110 a 1,1 0 0 0 -1,1 v 10 a 1,1 0 0 0 1,1 1,1 0 0 0 1,-1 v -10 a 1,1 0 0 0 -1,-1 z" id="path11714" />

        <path d="m 130,110 a 1,1 0 0 0 -1,1 v 10 a 1,1 0 0 0 1,1 1,1 0 0 0 1,-1 v -10 a 1,1 0 0 0 -1,-1 z" id="path11716" />

        <path  d="m 133,110 a 1,1 0 0 0 -1,1 v 5.20703 1.31445 V 121 a 1,1 0 0 0 1,1 1,1 0 0 0 1,-1 V 117.52148 116.20703 111 a 1,1 0 0 0 -1,-1 z" id="path11720" />

    </g>
    <g id="router" fill="currentColor">
        <path d="M9.2255 5.33199C8.92208 5.86298 8.93352 6.58479 9.55278 6.89443C10.3201 7.27808 10.7664 6.59927 11.1323 6.04284C11.4473 5.56389 11.8013 5.11292 12.2071 4.70711C13.0981 3.8161 14.3588 3 16 3C17.6412 3 18.9019 3.8161 19.7929 4.70711C20.1967 5.11095 20.5495 5.5595 20.8632 6.03593C21.2289 6.59127 21.6809 7.27759 22.4472 6.89443C23.0634 6.58633 23.0765 5.86043 22.7745 5.33199C22.7019 5.20497 22.5962 5.02897 22.4571 4.8203C22.1799 4.40465 21.7643 3.8501 21.2071 3.29289C20.0981 2.1839 18.3588 1 16 1C13.6412 1 11.9019 2.1839 10.7929 3.29289C10.2357 3.8501 9.82005 4.40465 9.54295 4.8203C9.40383 5.02897 9.29809 5.20497 9.2255 5.33199Z" />
        <path d="M14.4762 6.71292C14.2768 6.90911 14.1223 7.10809 14.0182 7.2579C13.6696 7.75991 13.1966 8.23817 12.5294 7.88235C11.9766 7.58751 11.8923 6.8973 12.193 6.39806C12.2358 6.327 12.2967 6.23053 12.3755 6.1171C12.5319 5.89191 12.7649 5.59089 13.0738 5.28708C13.6809 4.68987 14.6689 4 15.9999 4C17.3309 4 18.3189 4.68986 18.9261 5.28706C19.235 5.59087 19.468 5.89188 19.6244 6.11707C19.7031 6.2305 19.764 6.32697 19.8069 6.39803C20.1082 6.8983 20.0212 7.58858 19.4705 7.88233C18.8032 8.23829 18.3304 7.76001 17.9817 7.25793C17.8776 7.10812 17.7231 6.90913 17.5236 6.71294C17.1141 6.31014 16.6021 6 15.9999 6C15.3977 6 14.8857 6.31013 14.4762 6.71292Z" />
        <path d="M5 18C4.44772 18 4 18.4477 4 19C4 19.5523 4.44772 20 5 20C5.55228 20 6 19.5523 6 19C6 18.4477 5.55228 18 5 18Z" />
        <path d="M7 19C7 18.4477 7.44771 18 8 18C8.55229 18 9 18.4477 9 19C9 19.5523 8.55229 20 8 20C7.44771 20 7 19.5523 7 19Z" />
        <path d="M10 19C10 18.4477 10.4477 18 11 18C11.5523 18 12 18.4477 12 19C12 19.5523 11.5523 20 11 20C10.4477 20 10 19.5523 10 19Z" />
        <path fill-rule="evenodd" clip-rule="evenodd" d="M15 8C15 7.44771 15.4477 7 16 7C16.5523 7 17 7.44771 17 8V15H20C21.6569 15 23 16.3431 23 18V20C23 21.6569 21.6569 23 20 23H4C2.34315 23 1 21.6569 1 20V18C1 16.3431 2.34315 15 4 15H15V8ZM20 17C20.5523 17 21 17.4477 21 18V20C21 20.5523 20.5523 21 20 21H4C3.44772 21 3 20.5523 3 20V18C3 17.4477 3.44772 17 4 17H20Z" />
    </g>
    <g id="cctv" fill="currentColor">
        <path d="M18.618 7.462 6.403 2.085a1.007 1.007 0 0 0-.77-.016 1.002 1.002 0 0 0-.552.537l-3 7a1 1 0 0 0 .525 1.313L9.563 13.9 8.323 17H4v-3H2v8h2v-3h4.323c.823 0 1.552-.494 1.856-1.258l1.222-3.054 3.419 1.465a1 1 0 0 0 1.311-.518l3-6.857a1 1 0 0 0-.513-1.316zM19.93 16.372l-1.858-.742 1.998-5 1.858.741z"/>
    </g>
    <g id="mic"  fill="currentColor">
        <path d="M118,333 C121.866,333 125,329.866 125,326 L125,316 C125,312.134 121.866,309 118,309 C114.134,309 111,312.134 111,316 L111,326 C111,329.866 114.134,333 118,333 L118,333 Z M129,328 L127,328 C126.089,332.007 122.282,335 118,335 C113.718,335 109.911,332.007 109,328 L107,328 C107.883,332.799 112.063,336.51 117,336.955 L117,339 L116,339 C115.448,339 115,339.448 115,340 C115,340.553 115.448,341 116,341 L120,341 C120.552,341 121,340.553 121,340 C121,339.448 120.552,339 120,339 L119,339 L119,336.955 C123.937,336.51 128.117,332.799 129,328 L129,328 Z" >

        </path>
    </g>
    <g id="learning" fill="currentColor"  stroke="currentColor" stroke-width="12" stroke-linejoin="round" >
        <path d="M256.0043,359.5865A16.7234,16.7234,0,1,0,272.7279,376.31,16.7422,16.7422,0,0,0,256.0043,359.5865Zm0,23.4468a6.7234,6.7234,0,1,1,6.7236-6.7237A6.7312,6.7312,0,0,1,256.0043,383.0333Z"/>
        <path d="M465.335,94.1207h-35.8v-25.69a19.4824,19.4824,0,0,0-16.95-19.27c-2.84-.37-6.1-.75-9.72-1.12v-1.76a13.294,13.294,0,0,0-11.1-13.16,249.0943,249.0943,0,0,0-44.1167-3.46V24.0093a12.3038,12.3038,0,0,0-12.29-12.29H312.7015a33.4,33.4,0,0,0-33.3628,33.3628v1.7263l-.0037.0023a72.9281,72.9281,0,0,0-17.86,15.98,9.8046,9.8046,0,0,1-7.69,3.74,9.6728,9.6728,0,0,1-4.25-.98,9.8253,9.8253,0,0,1-3.44-2.76c-14.54-18.22-38-29.06-69.73-32.21-24.99-2.48-48.67.52-60.56,2.54a13.294,13.294,0,0,0-11.1,13.16v1.76c-3.62.37-6.88.75-9.72,1.12a19.4824,19.4824,0,0,0-16.95,19.27v25.69H46.665a31.5645,31.5645,0,0,0-31.53,31.52v257.98a31.5731,31.5731,0,0,0,31.53,31.53h171.53l-10.28,75.13h-24.39a5,5,0,1,0,0,10h146.88a5,5,0,0,0,0-10h-24.39l-10.28-75.13h169.6a31.5667,31.5667,0,0,0,31.53-31.53v-257.98A31.5581,31.5581,0,0,0,465.335,94.1207Zm-350.63-47.84a3.3233,3.3233,0,0,1,2.77-3.3c20.67-3.5,90.47-11.96,120.8,26.05a19.7856,19.7856,0,0,0,10.51,6.86v144.2a5,5,0,1,0,10,0V75.8807a19.7979,19.7979,0,0,0,10.51-6.85,61.2673,61.2673,0,0,1,10.04-9.94l.0037-.0028V93.7545a9.65,9.65,0,0,0,6.9,9.2924,9.7983,9.7983,0,0,0,2.84.4224,9.6447,9.6447,0,0,0,8.0507-4.3408l6.2037-9.3325,6.2041,9.3325a9.7072,9.7072,0,0,0,17.791-5.374V69.4293a5,5,0,0,0-10,0l0,23.3545-9.8306-14.7876a5,5,0,0,0-8.3281,0l-9.8311,14.788V45.0821c0-.0761.0051-.151.0058-.2269.0045-.4856.0267-.9677.0608-1.4468.0124-.1732.0235-.3466.04-.5187.0538-.5681.1239-1.1316.2218-1.6865a23.3965,23.3965,0,0,1,23.0348-19.4839h22.6568a2.2926,2.2926,0,0,1,2.29,2.29v6.0512l-.0033,0q-3.195.195-6.44.52c-1.31.13-2.6.27-3.88.44q-5.16.6149-10,1.53v10.21l.0041-.0007v9.0052a5,5,0,0,0,10,0V41.1c25.9487-3.3691,51.5665-.0194,62.7659,1.8805a3.3232,3.3232,0,0,1,2.77,3.3v175.64a3.3176,3.3176,0,0,1-1.08,2.46,3.397,3.397,0,0,1-2.59.87c-74.14-6.61-112.67,16.26-129.03,30.48a10.0655,10.0655,0,0,1-1.38,1v-18.36a5,5,0,0,0-10,0v18.36a10.0655,10.0655,0,0,1-1.38-1c-14.37-12.49-45.83-31.65-103.5-31.65-8,0-16.5.37-25.53,1.17a3.3485,3.3485,0,0,1-3.67-3.33Zm-26.67,22.15a9.4631,9.4631,0,0,1,8.24-9.35c2.49-.32,5.32-.66,8.43-.98v163.82a13.3453,13.3453,0,0,0,14.56,13.29c70.46-6.28,106.42,14.89,121.58,28.07a19.81,19.81,0,0,0,25.88,0c15.16-13.18,51.12-34.36,121.58-28.07a13.3453,13.3453,0,0,0,14.56-13.29V58.1008c3.11.32,5.94.66,8.43.98a9.4631,9.4631,0,0,1,8.24,9.35v171.69a9.4254,9.4254,0,0,1-10.02,9.4c-74.32-4.84-116.41,13.82-138.64,30.33a28.5,28.5,0,0,1-34.18,0c-19.79-14.7-55.34-31.11-115.35-31.11q-11.085,0-23.29.78a9.4254,9.4254,0,0,1-10.02-9.4Zm-62.9,57.21a21.5481,21.5481,0,0,1,21.53-21.52h31.37v33.44h-52.9Zm270.79,364.64h-77.92l10.28-75.13h57.36Zm190.94-152.91h-49.48a5,5,0,0,0,0,10h49.48v36.25a21.55,21.55,0,0,1-21.53,21.53H46.665a21.5566,21.5566,0,0,1-21.53-21.53v-36.25h389.86a5,5,0,0,0,0-10H25.135v-189.81h52.9v92.56a19.419,19.419,0,0,0,20.67,19.38c71.28-4.64,111.15,12.87,132.03,28.38a38.47,38.47,0,0,0,46.1,0c20.88-15.51,60.75-33.02,132.03-28.38a19.4188,19.4188,0,0,0,20.67-19.38v-92.56h57.33Zm0-199.81h-57.33v-33.44h35.8a21.5416,21.5416,0,0,1,21.53,21.52Z"/>
        <path d="M291.2767,142.1739a4.9993,4.9993,0,0,0,3.1626-1.124c.9336-.7588,23.3492-18.4649,65.4107-7.4073a5,5,0,1,0,2.542-9.6718c-47.313-12.437-73.2373,8.4707-74.3179,9.3667a4.9961,4.9961,0,0,0,3.2026,8.8364Z"/>
        <path d="M291.2767,171.9747a4.9988,4.9988,0,0,0,3.1626-1.1241c.9336-.7583,23.3492-18.4643,65.4107-7.4072a5,5,0,0,0,2.542-9.6719c-47.313-12.436-73.2373,8.4712-74.3179,9.3667a4.9962,4.9962,0,0,0,3.2026,8.8365Z"/>
        <path d="M291.2767,201.7755a4.9988,4.9988,0,0,0,3.1626-1.1241c.9336-.7583,23.3492-18.4638,65.4107-7.4072a5,5,0,0,0,2.542-9.6719c-47.313-12.437-73.2373,8.4707-74.3179,9.3667a4.9962,4.9962,0,0,0,3.2026,8.8365Z"/>
        <path d="M140.4989,130.0777a5.0015,5.0015,0,0,0,6.1069,3.5649c42.0054-11.0415,64.417,6.6006,65.4068,7.4043a5,5,0,0,0,6.3691-7.7094c-1.08-.8955-27.0029-21.8023-74.3179-9.3667A5,5,0,0,0,140.4989,130.0777Z"/>
        <path d="M144.0638,153.7715a5,5,0,0,0,2.542,9.6719c42.0054-11.0415,64.417,6.6006,65.4068,7.4043a5,5,0,0,0,6.3691-7.7095C217.3016,162.2432,191.3788,141.3355,144.0638,153.7715Z"/>
        <path d="M144.0638,183.5723a5,5,0,0,0,2.542,9.6719c42.0054-11.042,64.417,6.6006,65.4068,7.4043a5,5,0,0,0,6.3691-7.71C217.3016,192.0435,191.3788,171.1378,144.0638,183.5723Z"/>
    </g>
    <g id="multimeter" fill="currentColor">
        <g>
            <path   d="M373.313,469.309H266.646c-2.828,0-5.531-1.125-7.531-3.125s-3.125-4.703-3.125-7.546V394.64h21.344
		l-0.016,53.342h85.339v-74.669h21.328v85.325C383.985,464.544,379.204,469.309,373.313,469.309z"/>
            <path  d="M458.654,511.98H223.991c-2.828,0-5.547-1.125-7.547-3.125s-3.125-4.719-3.125-7.547l0.016-106.668
		h21.327l-0.016,95.997h213.335V373.313h21.344v127.995C469.326,507.199,464.545,511.98,458.654,511.98z"/>
            <path  d="M266.662,21.327H74.669c-29.405,0-53.342,23.929-53.342,53.333v277.326
		c0,29.405,23.937,53.326,53.342,53.326h191.993c29.405,0,53.325-23.921,53.325-53.326V74.66
		C319.987,45.256,296.067,21.327,266.662,21.327z"/>
        </g>
        <path  d="M266.662,0H74.669C45.264,0,21.327,23.921,21.327,53.326v277.316
	c0,29.406,23.937,53.343,53.342,53.343h191.993c29.405,0,53.325-23.937,53.325-53.343V53.326C319.987,23.921,296.067,0,266.662,0z"
        />
        <rect  x="64" y="42.662" style="fill:white;" width="213.32" height="106.66"/>
        <path  stroke="currentColor" stroke-width="7" stroke-linejoin="round" style="fill:white;" d="M234.662,21.327H106.668c-5.891,0-10.671-4.773-10.671-10.664S100.777,0,106.668,0h127.995
	c5.891,0,10.656,4.772,10.656,10.663S240.553,21.327,234.662,21.327z"/>

        <g>
            <path  d="M178.196,173.782c4.171,4.164,4.171,10.914,0,15.086c-4.156,4.164-10.906,4.164-15.077,0
		c-4.172-4.172-4.172-10.922,0-15.086C167.29,169.618,174.04,169.618,178.196,173.782z"/>
            <path  d="M178.196,344.439c4.171,4.172,4.171,10.922,0,15.078c-4.156,4.171-10.906,4.171-15.077,0
		c-4.172-4.156-4.172-10.906,0-15.078C167.29,340.267,174.04,340.267,178.196,344.439z"/>
            <path style="fill:white;" d="M130.761,182.453c5.687,1.523,9.062,7.375,7.531,13.062c-1.516,5.687-7.375,9.062-13.062,7.539
		c-5.687-1.523-9.062-7.367-7.531-13.062C119.214,184.305,125.073,180.93,130.761,182.453z"/>
            <path style="fill:white;" d="M216.085,330.236c5.688,1.531,9.062,7.375,7.547,13.078c-1.531,5.688-7.375,9.062-13.062,7.547
		c-5.703-1.531-9.078-7.375-7.547-13.062C204.539,332.095,210.398,328.72,216.085,330.236z"/>
            <path style="fill:white;" d="M93.996,213.687c5.687-1.523,11.546,1.852,13.062,7.539c1.531,5.687-1.844,11.538-7.531,13.061
		c-5.687,1.523-11.546-1.851-13.062-7.538C84.934,221.062,88.309,215.21,93.996,213.687z"/>
            <path style="fill:white;" d="M241.803,299.019c5.687-1.53,11.531,1.844,13.062,7.531c1.516,5.687-1.859,11.546-7.547,13.062
		c-5.687,1.531-11.546-1.844-13.062-7.531C232.725,306.394,236.1,300.535,241.803,299.019z"/>
            <path style="fill:white;" d="M77.794,259.106c4.156-4.163,10.906-4.163,15.078,0c4.172,4.172,4.172,10.922,0,15.086
		c-4.172,4.172-10.921,4.172-15.078,0C73.622,270.028,73.622,263.27,77.794,259.106z"/>
            <path style="fill:white;" d="M248.443,259.106c4.172-4.163,10.922-4.163,15.094,0c4.156,4.164,4.156,10.922,0,15.086
		c-4.172,4.172-10.922,4.172-15.094,0C244.287,270.028,244.287,263.278,248.443,259.106z"/>
            <path style="fill:white;" d="M86.465,306.551c1.516-5.688,7.375-9.062,13.062-7.531c5.688,1.516,9.062,7.375,7.531,13.062
		c-1.516,5.688-7.375,9.062-13.062,7.531C88.309,318.096,84.934,312.237,86.465,306.551z"/>
            <path style="fill:white;" d="M234.256,221.226c1.516-5.688,7.375-9.062,13.062-7.539c5.688,1.523,9.062,7.375,7.547,13.062
		c-1.531,5.687-7.375,9.069-13.062,7.538C236.1,232.763,232.725,226.913,234.256,221.226z"/>
            <path style="fill:white;" d="M117.698,343.314c-1.531-5.703,1.844-11.547,7.531-13.078c5.688-1.516,11.546,1.859,13.062,7.562
		c1.531,5.688-1.844,11.531-7.531,13.062C125.073,352.377,119.214,349.002,117.698,343.314z"/>
            <path style="fill:white;" d="M203.023,195.515c-1.531-5.687,1.844-11.539,7.547-13.062c5.687-1.523,11.531,1.852,13.062,7.539
		c1.516,5.695-1.859,11.538-7.547,13.062C210.398,204.577,204.539,201.202,203.023,195.515z"/>
        </g>
        <g>
            <path style="fill:white;" d="M256.349,194.75c-1.516-5.687,1.859-11.539,7.547-13.062s11.531,1.852,13.062,7.539
		c1.531,5.695-1.844,11.538-7.547,13.062C263.724,203.82,257.881,200.437,256.349,194.75z"/>
            <path  style="fill:white;" d="M64.357,194.75c-1.516-5.687,1.859-11.539,7.546-13.062s11.531,1.852,13.062,7.539
		c1.531,5.695-1.844,11.538-7.546,13.062C71.731,203.82,65.887,200.437,64.357,194.75z"/>
        </g>
        <path  style="fill:white;" d="M215.913,311.893c-24.999,24.999-65.513,24.999-90.512,0c-24.983-24.982-24.983-65.505,0-90.496
	c24.999-24.992,65.513-24.992,90.512,0C240.912,246.388,240.912,286.911,215.913,311.893z"/>
        <path style="fill:currentColor;" d="M148.041,299.957c-2.734,0-5.469-1.062-7.547-3.124c-4.172-4.172-4.172-10.938,0-15.094
	l45.248-45.257c4.172-4.164,10.922-4.164,15.093,0c4.156,4.164,4.156,10.922,0,15.086l-45.264,45.265
	C153.494,298.894,150.76,299.957,148.041,299.957z"/>
        <path  d="M394.657,138.658h-42.671c-5.891,0-10.671,4.773-10.671,10.664v223.991
	c0,5.891,4.78,10.672,10.671,10.672h42.671c5.891,0,10.656-4.781,10.656-10.672V149.322
	C405.313,143.431,400.548,138.658,394.657,138.658z"/>
        <path  d="M479.981,138.658H437.31c-5.891,0-10.654,4.773-10.654,10.664v223.991
	c0,5.891,4.764,10.672,10.654,10.672h42.671c5.891,0,10.672-4.781,10.672-10.672V149.322
	C490.653,143.431,485.872,138.658,479.981,138.658z"/>
        <g>
            <path  d="M373.313,159.993c-5.891,0-10.656-4.781-10.656-10.671V74.66c0-5.891,4.766-10.664,10.656-10.664
		s10.672,4.773,10.672,10.664v74.662C383.985,155.213,379.204,159.993,373.313,159.993z"/>
            <path  d="M458.654,159.993c-5.891,0-10.672-4.781-10.672-10.671V74.66c0-5.891,4.781-10.664,10.672-10.664
		S469.31,68.77,469.31,74.66v74.662C469.31,155.213,464.545,159.993,458.654,159.993z"/>
        </g>
        <path  d="M394.657,138.658h-42.671c-5.891,0-10.671,4.773-10.671,10.664v21.335h63.998v-21.335
	C405.313,143.431,400.548,138.658,394.657,138.658z"/>
        <path  d="M479.981,138.658H437.31c-5.891,0-10.654,4.773-10.654,10.664v21.335h63.997v-21.335
	C490.653,143.431,485.872,138.658,479.981,138.658z"/>
    </g>


</svg>
